<?xml version="1.0" encoding="utf-8"?>
<!-- Svg Vector Icons : http://www.onlinewebfonts.com/icon -->
<!DOCTYPE svg PUBLIC "-//W3C//DTD SVG 1.1//EN" "http://www.w3.org/Graphics/SVG/1.1/DTD/svg11.dtd">
<svg version="1.1" 
    xmlns="http://www.w3.org/2000/svg" 
    xmlns:xlink="http://www.w3.org/1999/xlink" 
    x="0px" y="0px" viewBox="0 0 1000 1000"  
    width="24" height="24" 
    xml:space="preserve">
    <g>
        <g transform="translate(0.000000,511.000000) scale(0.100000,-0.100000)">
            <path d="M4827.8,4939.7l-70.3-70.3v-684.1v-684.1l70.3-70.3c55.8-55.8,92.2-70.3,172.2-70.3c80,0,116.4,14.6,172.2,70.3l70.4,70.3v684.1v684.1l-70.4,70.3c-55.8,55.8-92.2,70.3-172.2,70.3C4920,5010,4883.6,4995.4,4827.8,4939.7z"/>
            <path d="M3115.2,4634c-75.2-31.5-152.8-143.1-152.8-218.3c0-19.4,109.2-300.8,242.6-625.8c162.5-393,264.4-604,305.6-640.4c65.5-60.6,196.5-75.2,279-31.5c55.8,31.5,118.9,148,118.9,220.7c0,48.5-388.1,1021.2-477.9,1193.5c-19.4,38.8-72.8,84.9-116.4,104.3C3214.7,4677.7,3212.2,4677.7,3115.2,4634z"/>
            <path d="M6681,4636.4c-41.2-19.4-89.8-58.2-104.3-89.8c-101.9-186.8-485.2-1161.9-485.2-1229.8c0-189.2,254.7-295.9,397.8-167.4c41.2,36.4,143.1,249.9,308,647.7c232.9,567.6,242.6,596.7,215.9,684.1C6969.7,4626.7,6821.7,4697.1,6681,4636.4z"/>
            <path d="M1540.9,3569.1c-80-80.1-87.3-97-75.2-189.2c12.1-94.6,50.9-138.3,482.7-570c463.3-460.9,473-468.2,574.9-468.2c145.5,0,245,99.5,245,245c0,101.9-7.3,111.6-468.2,574.9c-431.8,431.8-475.4,470.6-570,482.7C1637.9,3656.4,1620.9,3649.2,1540.9,3569.1z"/>
            <path d="M7712,3171.3c-475.4-473-480.3-480.3-480.3-584.6c0-145.5,99.5-245,245-245c101.9,0,111.6,7.3,574.9,468.2c431.8,431.8,470.6,475.4,482.7,570c12.1,92.2,4.9,109.2-72.8,186.8c-67.9,67.9-104.3,84.9-177.1,84.9C8194.7,3651.6,8168,3627.3,7712,3171.3z"/>
            <path d="M570.6,2101.5c-157.7-97-152.8-339.6,7.3-422.1c172.2-89.8,1144.9-477.9,1193.5-477.9c72.8,0,189.2,63.1,220.7,118.9c43.7,82.5,29.1,213.5-29.1,279c-38.8,41.2-249.8,143.1-642.8,305.6c-325,133.4-608.8,242.6-630.7,242.6C665.2,2147.6,611.8,2125.8,570.6,2101.5z"/>
            <path d="M8675,1902.6c-388.1-160.1-601.6-262-635.5-303.2c-60.6-65.5-75.2-196.5-31.5-279c31.5-55.8,148-118.9,220.7-118.9c48.5,0,1021.3,388.1,1193.5,477.9c99.5,48.5,148,179.5,111.6,291.1c-29.1,89.7-143.1,177.1-228,174.6C9279,2145.2,8995.2,2036,8675,1902.6z"/>
            <path d="M170.3,282.2C114.6,226.4,100,190,100,110c0-80,14.6-116.4,70.3-172.2l70.3-70.4h684.1h684.1l70.3,70.4c55.8,55.8,70.3,92.2,70.3,172.2c0,80-14.6,116.4-70.3,172.2l-70.3,70.3H924.8H240.7L170.3,282.2z"/>
            <path d="M8320.8,282.2c-55.8-55.8-70.4-92.2-70.4-172.2c0-80,14.5-116.4,70.4-172.2l70.3-70.4h684.1h684.1l70.3,70.4C9885.5-6.4,9900,30,9900,110c0,80-14.5,116.4-70.4,172.2l-70.3,70.3h-684.1h-684.1L8320.8,282.2z"/>
            <path d="M1123.7-1224.2c-308.1-131-579.8-249.8-596.7-266.8c-19.4-14.5-48.5-65.5-63.1-111.6c-41.2-123.7,26.7-252.3,157.7-298.4c97-31.5,99.5-31.5,691.3,213.5c397.8,164.9,611.3,266.8,650.1,308C2094-1229,1980-979.2,1781-984C1722.8-986.4,1482.7-1073.8,1123.7-1224.2z"/>
            <path d="M8054-1051.9c-53.4-55.8-70.4-94.6-70.4-169.8c0-162.5,50.9-196.5,703.5-465.7c591.9-245,594.3-245,691.3-213.5c131,46.1,198.9,174.7,157.7,300.8c-17,48.5-53.4,101.9-80,121.3c-118.9,77.6-1174.1,497.3-1249.3,497.3C8148.6-981.6,8105-1003.4,8054-1051.9z"/>
            <path d="M1938.7-2602c-456-456-480.3-482.7-480.3-572.5c0-72.8,17-109.2,84.9-177.1c77.6-77.6,94.6-84.9,186.8-72.8c94.6,12.1,138.3,51,570,482.7c460.9,463.3,468.2,473,468.2,574.9c0,145.5-99.5,245-245,245C2419-2121.7,2411.7-2126.5,1938.7-2602z"/>
            <path d="M7302-2192c-55.8-55.8-70.4-92.2-70.4-174.6c0-101.9,7.3-111.6,468.2-574.9c431.8-431.8,475.5-470.6,570-482.7c92.2-12.1,109.2-4.9,189.2,75.2c80.1,80,87.3,97,75.2,189.2c-12.1,94.6-51,138.3-482.7,570.1c-463.3,460.9-473,468.2-574.9,468.2C7394.2-2121.7,7357.8-2136.2,7302-2192z"/>
            <path d="M3510.6-2927c-41.2-38.8-143.1-249.9-305.6-642.8c-133.4-325-242.6-608.9-242.6-630.7c0-82.5,92.2-196.5,177.1-223.2c111.6-36.4,242.6,12.1,291.1,111.6c89.8,172.2,477.9,1145,477.9,1193.5c0,72.8-63.1,189.2-118.9,220.7C3707.1-2854.3,3576.1-2868.8,3510.6-2927z"/>
            <path d="M6161.9-2944c-48.5-50.9-70.4-94.6-70.4-152.8c0-75.2,419.6-1130.4,497.3-1249.3c19.4-26.7,72.8-63.1,121.3-80c126.1-41.2,254.7,26.7,300.8,157.7c31.5,97,31.5,99.4-213.5,691.3c-269.2,652.5-303.2,703.5-465.7,703.5C6256.5-2873.7,6217.7-2890.6,6161.9-2944z"/>
            <path d="M4827.8-3210.8l-70.3-70.3v-684.1v-684.1l70.3-70.3c55.8-55.8,92.2-70.4,172.2-70.4c80,0,116.4,14.5,172.2,70.4l70.4,70.3v684.1v684.1l-70.4,70.3C5072.8-3111.4,4927.2-3111.4,4827.8-3210.8z"/>
        </g>
    </g>
</svg>